<?xml version="1.0"?>
<!--Icons from directory ""-->
<svg xmlns="http://www.w3.org/2000/svg" width="26" height="24">
    <view id="BarChart" viewBox="0 0 26 24"/>
    <view id="Bell" viewBox="0 24 26 24"/>
    <view id="Calendar" viewBox="0 48 26 24"/>
    <view id="Cart" viewBox="0 72 26 24"/>
    <view id="CreditCard" viewBox="0 96 26 24"/>
    <view id="Download" viewBox="0 120 26 24"/>
    <view id="Edit" viewBox="0 144 26 24"/>
    <view id="Error" viewBox="0 168 26 24"/>
    <view id="Filter" viewBox="0 192 26 24"/>
    <view id="Help" viewBox="0 216 26 24"/>
    <view id="Home" viewBox="0 240 26 24"/>
    <view id="Image" viewBox="0 264 26 24"/>
    <view id="Inbox" viewBox="0 288 26 24"/>
    <view id="Map" viewBox="0 312 26 24"/>
    <view id="Pin" viewBox="0 336 26 24"/>
    <view id="Search" viewBox="0 360 26 24"/>
    <view id="Share" viewBox="0 384 26 24"/>
    <view id="Star" viewBox="0 408 26 24"/>
    <view id="Success" viewBox="0 432 26 24"/>
    <view id="Upload" viewBox="0 456 26 24"/>
    <view id="User" viewBox="0 480 26 24"/>
    <view id="Users" viewBox="0 504 26 24"/>
    <view id="Vector" viewBox="0 528 26 20"/>
    <view id="Zap" viewBox="0 548 26 24"/>
    <view id="check" viewBox="0 572 26 24"/>
    <view id="menu" viewBox="0 596 26 24"/>
    <view id="moon" viewBox="0 620 26 24"/>
    <view id="sun" viewBox="0 644 26 24"/>
    <view id="vector" viewBox="0 668 26 24"/>
    <view id="x" viewBox="0 694 26 24"/>
    <view id="all" viewBox="0 0 26 718"/>
    <svg width="24" height="24" fill="none" id="BarChart" y="0"><path fill-rule="evenodd" clip-rule="evenodd" d="M18 9a1 1 0 011 1v10a1 1 0 11-2 0V10a1 1 0 011-1zM12 3a1 1 0 011 1v16a1 1 0 11-2 0V4a1 1 0 011-1zM6 13a1 1 0 011 1v6a1 1 0 11-2 0v-6a1 1 0 011-1z" fill="#212429"/></svg>
    <svg width="24" height="24" fill="none" id="Bell" y="24"><path fill-rule="evenodd" clip-rule="evenodd" d="M7.05 3.05A7 7 0 0119 8c0 3.353.717 5.435 1.378 6.646.332.608.655 1.007.88 1.244a3.026 3.026 0 00.306.284l.002.002A1 1 0 0121 18H3a1 1 0 01-.563-1.826l.052-.042c.053-.044.141-.123.254-.242.224-.237.547-.636.88-1.244C4.282 13.435 5 11.353 5 8a7 7 0 012.05-4.95zM2.444 16.17zM5.149 16h13.702a9.421 9.421 0 01-.229-.396C17.783 14.065 17 11.647 17 8A5 5 0 007 8c0 3.647-.783 6.065-1.622 7.604-.076.14-.153.271-.229.396zM9.768 20.135a1 1 0 011.367.363 1 1 0 001.73 0 1 1 0 011.73 1.004 3 3 0 01-5.19 0 1 1 0 01.363-1.367z" fill="#212429"/></svg>
    <svg width="24" height="24" fill="none" id="Calendar" y="48"><path fill-rule="evenodd" clip-rule="evenodd" d="M5 5a1 1 0 00-1 1v14a1 1 0 001 1h14a1 1 0 001-1V6a1 1 0 00-1-1H5zM2 6a3 3 0 013-3h14a3 3 0 013 3v14a3 3 0 01-3 3H5a3 3 0 01-3-3V6z" fill="#212429"/><path fill-rule="evenodd" clip-rule="evenodd" d="M16 1a1 1 0 011 1v4a1 1 0 11-2 0V2a1 1 0 011-1zM8 1a1 1 0 011 1v4a1 1 0 01-2 0V2a1 1 0 011-1zM2 10a1 1 0 011-1h18a1 1 0 110 2H3a1 1 0 01-1-1z" fill="#212429"/></svg>
    <svg width="24" height="24" fill="none" id="Cart" y="72"><g clip-path="url(#Cart-clip0)" fill-rule="evenodd" clip-rule="evenodd" fill="#212429"><path d="M7 21a2 2 0 114 0 2 2 0 01-4 0zM18 21a2 2 0 114 0 2 2 0 01-4 0zM0 1a1 1 0 011-1h4a1 1 0 01.98.804L6.82 5H23a1 1 0 01.982 1.187l-1.601 8.398A3 3 0 0119.39 17H9.69a3 3 0 01-2.99-2.414L5.03 6.239a.994.994 0 01-.017-.084L4.18 2H1a1 1 0 01-1-1zm7.22 6l1.44 7.195a1 1 0 001 .805h9.76a1 1 0 00.998-.802L21.792 7H7.221z"/></g><defs><clipPath id="Cart-clip0"><path fill="#fff" d="M0 0h24v24H0z"/></clipPath></defs></svg>
    <svg width="24" height="24" fill="none" id="CreditCard" y="96"><path fill-rule="evenodd" clip-rule="evenodd" d="M3 5a1 1 0 00-1 1v12a1 1 0 001 1h18a1 1 0 001-1V6a1 1 0 00-1-1H3zM0 6a3 3 0 013-3h18a3 3 0 013 3v12a3 3 0 01-3 3H3a3 3 0 01-3-3V6z" fill="#212429"/><path fill-rule="evenodd" clip-rule="evenodd" d="M0 10a1 1 0 011-1h22a1 1 0 110 2H1a1 1 0 01-1-1z" fill="#212429"/></svg>
    <svg width="24" height="24" fill="none" id="Download" y="120"><path fill-rule="evenodd" clip-rule="evenodd" d="M3 14a1 1 0 011 1v4a1 1 0 001 1h14a1 1 0 001-1v-4a1 1 0 112 0v4a3 3 0 01-3 3H5a3 3 0 01-3-3v-4a1 1 0 011-1z" fill="#212429"/><path fill-rule="evenodd" clip-rule="evenodd" d="M6.293 9.293a1 1 0 011.414 0L12 13.586l4.293-4.293a1 1 0 111.414 1.414l-5 5a1 1 0 01-1.414 0l-5-5a1 1 0 010-1.414z" fill="#212429"/><path fill-rule="evenodd" clip-rule="evenodd" d="M12 2a1 1 0 011 1v12a1 1 0 11-2 0V3a1 1 0 011-1z" fill="#212429"/></svg>
    <svg width="24" height="24" fill="none" id="Edit" y="144"><path fill-rule="evenodd" clip-rule="evenodd" d="M1.879 3.879A3 3 0 014 3h7a1 1 0 110 2H4a1 1 0 00-1 1v14a1 1 0 001 1h14a1 1 0 001-1v-7a1 1 0 112 0v7a3 3 0 01-3 3H4a3 3 0 01-3-3V6a3 3 0 01.879-2.121z" fill="#212429"/><path fill-rule="evenodd" clip-rule="evenodd" d="M20 2.879c-.297 0-.583.118-.793.328l-9.304 9.304-.529 2.115 2.115-.529 9.304-9.304A1.121 1.121 0 0020 2.879zm-2.207-1.086a3.121 3.121 0 014.414 4.414l-9.5 9.5a1 1 0 01-.464.263l-4 1a1 1 0 01-1.213-1.212l1-4a1 1 0 01.263-.465l9.5-9.5z" fill="#212429"/></svg>
    <svg width="24" height="24" fill="none" id="Error" y="168"><path fill-rule="evenodd" clip-rule="evenodd" d="M10.528 2.283a3 3 0 014.037 1.058l.003.005 8.47 14.14.008.014a3 3 0 01-2.565 4.5H3.519a3 3 0 01-2.565-4.5l.008-.014 8.47-14.14.858.514-.855-.519a3 3 0 011.093-1.058zm.618 2.094L2.683 18.506A1 1 0 003.536 20h16.928a1 1 0 00.853-1.494L12.855 4.379l-.001-.002a1 1 0 00-1.708 0z" fill="#212429"/><path fill-rule="evenodd" clip-rule="evenodd" d="M12 8a1 1 0 011 1v4a1 1 0 11-2 0V9a1 1 0 011-1zM12 15a1 1 0 011 1v.5a1 1 0 11-2 0V16a1 1 0 011-1z" fill="#212429"/></svg>
    <svg width="24" height="24" fill="none" id="Filter" y="192"><path fill-rule="evenodd" clip-rule="evenodd" d="M1.093 2.58A1 1 0 012 2h20a1 1 0 01.764 1.646L15 12.826V21a1 1 0 01-1.447.894l-4-2A1 1 0 019 19v-6.174l-7.764-9.18a1 1 0 01-.143-1.067zM4.155 4l6.609 7.814a1 1 0 01.236.646v5.922l2 1V12.46a1 1 0 01.236-.646L19.845 4H4.155z" fill="#212429"/></svg>
    <svg width="24" height="24" fill="none" id="Help" y="216"><path fill-rule="evenodd" clip-rule="evenodd" d="M12 3a9 9 0 100 18 9 9 0 000-18zM1 12C1 5.925 5.925 1 12 1s11 4.925 11 11-4.925 11-11 11S1 18.075 1 12z" fill="#212429"/><path fill-rule="evenodd" clip-rule="evenodd" d="M12.258 8.024a2 2 0 00-2.224 1.308 1 1 0 01-1.887-.664 4 4 0 017.773 1.333c0 1.53-1.135 2.54-1.945 3.081a8.036 8.036 0 01-1.686.848l-.035.013-.011.003-.004.002h-.001s-.002 0-.318-.948l.316.949a1 1 0 01-.633-1.897h-.001l.017-.006.074-.027a6.046 6.046 0 001.172-.6c.69-.46 1.055-.95 1.055-1.419v-.002a2 2 0 00-1.662-1.974zM12 15a1 1 0 011 1v.5a1 1 0 11-2 0V16a1 1 0 011-1z" fill="#212429"/></svg>
    <svg width="24" height="24" fill="none" id="Home" y="240"><path fill-rule="evenodd" clip-rule="evenodd" d="M11.386 1.21a1 1 0 011.228 0l9 7A1 1 0 0122 9v11a3 3 0 01-3 3H5a3 3 0 01-3-3V9a1 1 0 01.386-.79l9-7zM4 9.49V20a1 1 0 001 1h14a1 1 0 001-1V9.49l-8-6.223-8 6.222z" fill="#212429"/><path fill-rule="evenodd" clip-rule="evenodd" d="M8 12a1 1 0 011-1h6a1 1 0 011 1v10a1 1 0 11-2 0v-9h-4v9a1 1 0 11-2 0V12z" fill="#212429"/></svg>
    <svg width="24" height="24" fill="none" id="Image" y="264"><path fill-rule="evenodd" clip-rule="evenodd" d="M5 4a1 1 0 00-1 1v14a1 1 0 001 1h14a1 1 0 001-1V5a1 1 0 00-1-1H5zM2 5a3 3 0 013-3h14a3 3 0 013 3v14a3 3 0 01-3 3H5a3 3 0 01-3-3V5z" fill="#212429"/><path fill-rule="evenodd" clip-rule="evenodd" d="M8.5 8a.5.5 0 100 1 .5.5 0 000-1zM6 8.5a2.5 2.5 0 115 0 2.5 2.5 0 01-5 0zM15.293 9.293a1 1 0 011.414 0l5 5a1 1 0 01-1.414 1.414L16 11.414 5.707 21.707a1 1 0 01-1.414-1.414l11-11z" fill="#212429"/></svg>
    <svg width="24" height="24" fill="none" id="Inbox" y="288"><path fill-rule="evenodd" clip-rule="evenodd" d="M1 12a1 1 0 011-1h6a1 1 0 01.832.445L10.535 14h2.93l1.703-2.555A1 1 0 0116 11h6a1 1 0 110 2h-5.465l-1.703 2.555A1 1 0 0114 16h-4a1 1 0 01-.832-.445L7.465 13H2a1 1 0 01-1-1z" fill="#212429"/><path fill-rule="evenodd" clip-rule="evenodd" d="M7.24 3h9.52a3.002 3.002 0 012.685 1.665l3.45 6.887A1 1 0 0123 12v6a3 3 0 01-3 3H4a3 3 0 01-3-3v-6a1 1 0 01.106-.448l3.448-6.887.001-.001A3 3 0 017.24 3zM5.45 5.11l.894.448L3 12.236V18a1 1 0 001 1h16a1 1 0 001-1v-5.764l-3.344-6.678-.002-.003A1 1 0 0016.76 5H7.24a1 1 0 00-.894.555L5.45 5.11z" fill="#212429"/></svg>
    <svg width="24" height="24" fill="none" id="Map" y="312"><path fill-rule="evenodd" clip-rule="evenodd" d="M7.504 1.132a1 1 0 01.943-.026l7.522 3.76 6.535-3.734A1 1 0 0124 2v16a1 1 0 01-.504.868l-7 4a1 1 0 01-.943.026l-7.522-3.76-6.535 3.734A1 1 0 010 22V6a1 1 0 01.504-.868l7-4zm.527 2.002L2 6.58v13.697l5.504-3.145a1 1 0 01.943-.026l7.522 3.76L22 17.42V3.723l-5.504 3.145a1 1 0 01-.943.026L8.03 3.134z" fill="#212429"/><path fill-rule="evenodd" clip-rule="evenodd" d="M8 1a1 1 0 011 1v16a1 1 0 11-2 0V2a1 1 0 011-1zM16 5a1 1 0 011 1v16a1 1 0 11-2 0V6a1 1 0 011-1z" fill="#212429"/></svg>
    <svg width="24" height="24" fill="none" id="Pin" y="336"><path fill-rule="evenodd" clip-rule="evenodd" d="M12 2a8 8 0 00-8 8c0 3.098 2.016 6.104 4.226 8.437A29.419 29.419 0 0012 21.773a29.412 29.412 0 003.774-3.335C17.984 16.103 20 13.097 20 10a8 8 0 00-8-8zm0 21l-.555.832-.003-.002-.007-.005-.023-.015a28.518 28.518 0 01-1.441-1.074 31.428 31.428 0 01-3.197-2.923C4.484 17.396 2 13.902 2 10a10 10 0 0120 0c0 3.902-2.484 7.396-4.774 9.813a31.433 31.433 0 01-4.254 3.726 18.887 18.887 0 01-.384.27l-.023.016-.007.005-.002.001s-.001.001-.556-.831zm0 0l.555.832a1 1 0 01-1.11 0L12 23z" fill="#212429"/><path fill-rule="evenodd" clip-rule="evenodd" d="M12 8a2 2 0 100 4 2 2 0 000-4zm-4 2a4 4 0 118 0 4 4 0 01-8 0z" fill="#212429"/></svg>
    <svg width="24" height="24" fill="none" id="Search" y="360"><path fill-rule="evenodd" clip-rule="evenodd" d="M11 4a7 7 0 100 14 7 7 0 000-14zm-9 7a9 9 0 1118 0 9 9 0 01-18 0z" fill="#212429"/><path fill-rule="evenodd" clip-rule="evenodd" d="M15.943 15.943a1 1 0 011.414 0l4.35 4.35a1 1 0 01-1.414 1.414l-4.35-4.35a1 1 0 010-1.414z" fill="#212429"/></svg>
    <svg width="24" height="24" fill="none" id="Share" y="384"><path fill-rule="evenodd" clip-rule="evenodd" d="M18 3a2 2 0 100 4 2 2 0 000-4zm-4 2a4 4 0 118 0 4 4 0 01-8 0zM6 10a2 2 0 100 4 2 2 0 000-4zm-4 2a4 4 0 118 0 4 4 0 01-8 0zM18 17a2 2 0 100 4 2 2 0 000-4zm-4 2a4 4 0 118 0 4 4 0 01-8 0z" fill="#212429"/><path fill-rule="evenodd" clip-rule="evenodd" d="M7.726 13.007a1 1 0 011.367-.361l6.83 3.98a1 1 0 11-1.007 1.728l-6.83-3.98a1 1 0 01-.36-1.367zM16.274 6.006a1 1 0 01-.36 1.368l-6.82 3.98a1 1 0 01-1.008-1.728l6.82-3.98a1 1 0 011.368.36z" fill="#212429"/></svg>
    <svg width="24" height="24" fill="none" id="Star" y="408"><path fill-rule="evenodd" clip-rule="evenodd" d="M12 1a1 1 0 01.897.557l2.857 5.79 6.39.934a1 1 0 01.554 1.705l-4.623 4.503 1.09 6.362a1 1 0 01-1.45 1.054L12 18.9l-5.715 3.005a1 1 0 01-1.45-1.054l1.09-6.362-4.623-4.503a1 1 0 01.553-1.705l6.39-.935 2.858-5.789A1 1 0 0112 1zm0 3.26L9.807 8.702a1 1 0 01-.752.546l-4.907.718 3.55 3.457a1 1 0 01.288.885l-.838 4.883 4.387-2.307a1 1 0 01.93 0l4.387 2.307-.838-4.883a1 1 0 01.288-.885l3.55-3.457-4.907-.718a1 1 0 01-.752-.546L12 4.259z" fill="#212429"/></svg>
    <svg width="24" height="24" fill="none" id="Success" y="432"><path fill-rule="evenodd" clip-rule="evenodd" d="M15.663 3.773A9 9 0 1021 12v-.919a1 1 0 112 0V12A11.002 11.002 0 018.188 22.313a11 11 0 118.289-20.366 1 1 0 11-.814 1.826z" fill="#212429"/><path fill-rule="evenodd" clip-rule="evenodd" d="M22.707 3.293a1 1 0 010 1.414l-10 10.01a1 1 0 01-1.414 0l-3-3a1 1 0 111.414-1.414L12 12.595l9.293-9.302a1 1 0 011.414 0z" fill="#212429"/></svg>
    <svg width="24" height="24" fill="none" id="Upload" y="456"><g clip-path="url(#Upload-clip0)" fill-rule="evenodd" clip-rule="evenodd" fill="#212429"><path d="M11.293 11.293a1 1 0 011.414 0l4 4a1 1 0 01-1.414 1.414L12 13.414l-3.293 3.293a1 1 0 01-1.414-1.414l4-4z"/><path d="M12 11a1 1 0 011 1v9a1 1 0 11-2 0v-9a1 1 0 011-1z"/><path d="M8.663 2.009A9 9 0 0117.48 8H18a6.002 6.002 0 015.497 8.398 6 6 0 01-2.628 2.87 1 1 0 11-.958-1.756A4 4 0 0018 10H16.74a1 1 0 01-.968-.75 7 7 0 10-12.023 6.388 1 1 0 11-1.498 1.324A9 9 0 018.663 2.01z"/><path d="M11.293 11.293a1 1 0 011.414 0l4 4a1 1 0 01-1.414 1.414L12 13.414l-3.293 3.293a1 1 0 01-1.414-1.414l4-4z"/></g><defs><clipPath id="Upload-clip0"><path fill="#fff" d="M0 0h24v24H0z"/></clipPath></defs></svg>
    <svg width="24" height="24" fill="none" id="User" y="480"><path fill-rule="evenodd" clip-rule="evenodd" d="M4.464 15.464A5 5 0 018 14h8a5 5 0 015 5v2a1 1 0 11-2 0v-2a3 3 0 00-3-3H8a3 3 0 00-3 3v2a1 1 0 11-2 0v-2a5 5 0 011.464-3.536zM12 4a3 3 0 100 6 3 3 0 000-6zM7 7a5 5 0 1110 0A5 5 0 017 7z" fill="#212429"/></svg>
    <svg width="24" height="24" fill="none" id="Users" y="504"><path fill-rule="evenodd" clip-rule="evenodd" d="M1.464 15.464A5 5 0 015 14h8a5 5 0 015 5v2a1 1 0 11-2 0v-2a3 3 0 00-3-3H5a3 3 0 00-3 3v2a1 1 0 11-2 0v-2a5 5 0 011.464-3.536zM9 4a3 3 0 100 6 3 3 0 000-6zM4 7a5 5 0 1110 0A5 5 0 014 7zM19.032 14.88a1 1 0 011.218-.718A5 5 0 0124 18.999V21a1 1 0 11-2 0v-2a3 3 0 00-2.25-2.902 1 1 0 01-.718-1.218zM15.031 2.882a1 1 0 011.217-.72 5 5 0 010 9.687 1 1 0 01-.496-1.938 3 3 0 000-5.812 1 1 0 01-.72-1.217z" fill="#212429"/></svg>
    <svg width="20" height="20" fill="none" id="Vector" y="528"><path d="M19 9.5a8.38 8.38 0 01-.9 3.8 8.5 8.5 0 01-7.6 4.7 8.379 8.379 0 01-3.8-.9L1 19l1.9-5.7A8.38 8.38 0 012 9.5a8.5 8.5 0 014.7-7.6 8.38 8.38 0 013.8-.9h.5a8.48 8.48 0 018 8v.5z" stroke="#212429" stroke-width="2" stroke-linecap="round" stroke-linejoin="round"/></svg>
    <svg width="24" height="24" fill="none" id="Zap" y="548"><path fill-rule="evenodd" clip-rule="evenodd" d="M13.398 1.083a1 1 0 01.594 1.041L13.132 9H21a1 1 0 01.768 1.64l-10 12a1 1 0 01-1.76-.764l.86-6.876H3a1 1 0 01-.768-1.64l10-12a1 1 0 011.166-.277zM5.135 13H12a1 1 0 01.992 1.124l-.577 4.615L18.865 11H12a1 1 0 01-.992-1.124l.577-4.616L5.135 13z" fill="#212429"/></svg>
    <svg width="24" height="24" fill="none" id="check" y="572"><path fill-rule="evenodd" clip-rule="evenodd" d="M20.707 5.293a1 1 0 010 1.414l-11 11a1 1 0 01-1.414 0l-5-5a1 1 0 111.414-1.414L9 15.586 19.293 5.293a1 1 0 011.414 0z" fill="#000"/></svg>
    <svg width="24" height="24" fill="none" id="menu" y="596"><path fill-rule="evenodd" clip-rule="evenodd" d="M2 12a1 1 0 011-1h18a1 1 0 110 2H3a1 1 0 01-1-1zM2 6a1 1 0 011-1h18a1 1 0 110 2H3a1 1 0 01-1-1zM2 18a1 1 0 011-1h18a1 1 0 110 2H3a1 1 0 01-1-1z" fill="#212429"/></svg>
    <svg width="24" height="24" fill="none" id="moon" y="620"><path fill-rule="evenodd" clip-rule="evenodd" d="M12.081 2.509a1 1 0 01-.067 1.085 6 6 0 008.392 8.392l.594.804.996.092A10 10 0 1111.118 2.004a1 1 0 01.963.505zm7.48 12.175A7.999 7.999 0 019.316 4.439a8 8 0 1010.245 10.245z" fill="#212429"/></svg>
    <svg width="24" height="24" fill="none" id="sun" y="644"><path fill-rule="evenodd" clip-rule="evenodd" d="M12 8a4 4 0 100 8 4 4 0 000-8zm-6 4a6 6 0 1112 0 6 6 0 01-12 0zM12 0a1 1 0 011 1v2a1 1 0 11-2 0V1a1 1 0 011-1zM12 20a1 1 0 011 1v2a1 1 0 11-2 0v-2a1 1 0 011-1zM3.513 3.513a1 1 0 011.414 0l1.42 1.42a1 1 0 01-1.414 1.414l-1.42-1.42a1 1 0 010-1.414zM17.653 17.653a1 1 0 011.414 0l1.42 1.42a1 1 0 01-1.414 1.414l-1.42-1.42a1 1 0 010-1.414zM0 12a1 1 0 011-1h2a1 1 0 110 2H1a1 1 0 01-1-1zM20 12a1 1 0 011-1h2a1 1 0 110 2h-2a1 1 0 01-1-1zM6.347 17.653a1 1 0 010 1.414l-1.42 1.42a1 1 0 01-1.414-1.414l1.42-1.42a1 1 0 011.414 0zM20.487 3.513a1 1 0 010 1.414l-1.42 1.42a1 1 0 11-1.414-1.414l1.42-1.42a1 1 0 011.414 0z" fill="#212429"/></svg>
    <svg width="26" height="26" fill="none" id="vector" y="668"><path fill-rule="evenodd" clip-rule="evenodd" d="M4.293 8.293a1 1 0 011.414 0L13 15.586l7.293-7.293a1 1 0 111.414 1.414l-8 8a1 1 0 01-1.414 0l-8-8a1 1 0 010-1.414z" fill="#212429"/></svg>
    <svg width="24" height="24" fill="none" id="x" y="694"><path fill-rule="evenodd" clip-rule="evenodd" d="M18.707 5.293a1 1 0 010 1.414l-12 12a1 1 0 01-1.414-1.414l12-12a1 1 0 011.414 0z" fill="#212429"/><path fill-rule="evenodd" clip-rule="evenodd" d="M5.293 5.293a1 1 0 011.414 0l12 12a1 1 0 01-1.414 1.414l-12-12a1 1 0 010-1.414z" fill="#212429"/></svg>

</svg>